# xmcd
#
# Track frame offsets:
#	150
#	10085
#	17607
#	34405
#	39892
#	57102
#	58512
#	63127
#	69310
#	75260
#	93000
#	95752
#	110020
#	110907
#	115272
#	120505
#	125785
#	141077
#	155857
#	159760
#	206870
#	208687
#	230197
#
# Disc length: 3165 seconds
#
# Revision: 1
# Processed by: cddbd v1.5.1PL2 Copyright (c) Steve Scherf et al.
# Submitted via: audiograbber 1.80.04
#
DISCID=3c0c5b17
DTITLE=The New Riders of the Purple Sage - The Relix Bay Rock Shop #1 
DYEAR=1992
DGENRE=Country
TTITLE0=Open Collage
TTITLE1=Conversation
TTITLE2=Louisana Lady
TTITLE3=Conversation
TTITLE4=Cecilla
TTITLE5=Conversation
TTITLE6=Spot...Tom Constanten
TTITLE7=Spot...Arrowhead Ranch
TTITLE8=Conversation
TTITLE9=Midnight Moonlight
TTITLE10=Conversation
TTITLE11=All I remember
TTITLE12=Conversation
TTITLE13=Spot...Arrowhead RAnch
TTITLE14=Spot...New Riders
TTITLE15=Conversation
TTITLE16=Henry
TTITLE17=Charlie's Garden
TTITLE18=Conversation
TTITLE19=Dirty Business
TTITLE20=Conversation
TTITLE21=Glendale Train
TTITLE22=Close
EXTD=Limited Edition 1000 Copies Total. 700 to the public, 300 to Radio Station
EXTD=s.\nRelix Records CDRBRS0001
EXTT0=
EXTT1=
EXTT2=
EXTT3=
EXTT4=
EXTT5=
EXTT6=
EXTT7=
EXTT8=
EXTT9=
EXTT10=
EXTT11=
EXTT12=
EXTT13=
EXTT14=
EXTT15=
EXTT16=
EXTT17=
EXTT18=
EXTT19=
EXTT20=
EXTT21=
EXTT22=
PLAYORDER=
